<?xml version="1.0" encoding="UTF-8" standalone="no"?>
<svg
   xmlns:osb="http://www.openswatchbook.org/uri/2009/osb"
   xmlns:dc="http://purl.org/dc/elements/1.1/"
   xmlns:cc="http://creativecommons.org/ns#"
   xmlns:rdf="http://www.w3.org/1999/02/22-rdf-syntax-ns#"
   xmlns:svg="http://www.w3.org/2000/svg"
   xmlns="http://www.w3.org/2000/svg"
   xmlns:xlink="http://www.w3.org/1999/xlink"
   xmlns:sodipodi="http://sodipodi.sourceforge.net/DTD/sodipodi-0.dtd"
   xmlns:inkscape="http://www.inkscape.org/namespaces/inkscape"
   width="550pt"
   height="400pt"
   viewBox="0 0 550 400"
   version="1.1"
   id="svg3336"
   inkscape:version="0.91 r13725"
   sodipodi:docname="logog.svg">
  <metadata
     id="metadata3345">
    <rdf:RDF>
      <cc:Work
         rdf:about="">
        <dc:format>image/svg+xml</dc:format>
        <dc:type
           rdf:resource="http://purl.org/dc/dcmitype/StillImage" />
        <dc:title />
      </cc:Work>
    </rdf:RDF>
  </metadata>
  <defs
     id="defs3343">
    <linearGradient
       id="linearGradient5621"
       osb:paint="solid">
      <stop
         style="stop-color:#000000;stop-opacity:1;"
         offset="0"
         id="stop5623" />
    </linearGradient>
    <linearGradient
       inkscape:collect="always"
       xlink:href="#linearGradient5621"
       id="linearGradient5625"
       x1="156.20019"
       y1="200.48119"
       x2="393.70117"
       y2="200.48119"
       gradientUnits="userSpaceOnUse" />
  </defs>
  <sodipodi:namedview
     pagecolor="#ffffff"
     bordercolor="#666666"
     borderopacity="1"
     objecttolerance="10"
     gridtolerance="10"
     guidetolerance="10"
     inkscape:pageopacity="0"
     inkscape:pageshadow="2"
     inkscape:window-width="1366"
     inkscape:window-height="705"
     id="namedview3341"
     showgrid="false"
     inkscape:zoom="1.076"
     inkscape:cx="341.34913"
     inkscape:cy="212.82528"
     inkscape:window-x="-8"
     inkscape:window-y="-8"
     inkscape:window-maximized="1"
     inkscape:current-layer="svg3336"
     showguides="true"
     inkscape:guide-bbox="true">
    <sodipodi:guide
       position="326.39405,400"
       orientation="0,1"
       id="guide3334" />
  </sodipodi:namedview>
  <g
     id="surface2054"
     style="fill:url(#linearGradient5625);fill-opacity:1"
     transform="matrix(1.0469573,0,0,1.0407079,-7.3347471,-3.328448)">
    <path
       style="fill:url(#linearGradient5625);fill-opacity:1;fill-rule:nonzero;stroke:none"
       d="m 273,251.89844 c 0.93359,-0.0664 1.86719,0.36718 2.80078,1.30078 l 8.44922,8.44922 c 0.13281,0.13281 0.26562,0.26953 0.39844,0.40234 l 10.5,10.5 c 1.73437,1.73047 1.73437,3.48047 0,5.25 l -16.5,16.44922 c -1.73047,1.73437 -3.46485,1.73437 -5.19922,0 l -10.5,-10.5 c -0.13281,-0.13281 -0.23047,-0.30078 -0.30078,-0.5 l -0.0977,-0.0508 -0.10156,0.0508 -8.34766,-8.35156 c -1.76953,-1.73047 -1.76953,-3.46485 0,-5.19922 l 16.44922,-16.5 c 0.83203,-0.80078 1.64844,-1.23047 2.44922,-1.30078 m 15.64844,-134.04688 c 1.80078,1.73047 1.83593,3.5 0.10156,5.29688 l -16.5,16.40234 c -1.80078,1.80078 -3.60156,1.83203 -5.39844,0.0977 l -10.55078,-10.5 c -1.73437,-1.79688 -1.69922,-3.59766 0.0977,-5.39844 L 273,107.25 c 1.73437,-1.66797 3.43359,-1.63281 5.10156,0.10156 l 10.54688,10.5 m -46.5,46.5 -10.5,-10.55078 C 229.91797,152 229.94922,150.19922 231.75,148.39844 L 248.10156,132 c 1.79688,-1.80078 3.58203,-1.80078 5.34766,0 l 10.5,10.55078 c 1.80078,1.73047 1.80078,3.5 0,5.30078 L 247.55078,164.25 c -1.80078,1.80078 -3.60156,1.83203 -5.40234,0.10156 m -2.94922,2.94922 c 1.80078,1.76563 1.8164,3.51563 0.0508,5.25 L 222.80078,189 c -1.73437,1.76562 -3.5,1.76562 -5.30078,0 l -10.55078,-10.5 c -1.73047,-1.80078 -1.73047,-3.56641 0,-5.30078 l 16.5,-16.5 c 1.73437,-1.73047 3.46875,-1.69922 5.19922,0.10156 l 10.55078,10.5 m -56.94922,30.55078 16.5,-16.45312 c 1.73437,-1.76563 3.46875,-1.73047 5.19922,0.10156 L 214.5,192 c 1.80078,1.73437 1.83203,3.46875 0.10156,5.19922 l -16.5,16.5 c -1.73437,1.73437 -3.5,1.73437 -5.30078,0 l -10.55078,-10.5 c -1.73438,-1.80078 -1.73438,-3.58203 0,-5.34766 M 331.85156,161 l 10.54688,10.5 c 1.73437,1.73437 1.73437,3.5 0,5.30078 L 251.75,267.35156 c -1.73438,1.73047 -3.46875,1.73047 -5.19922,0 L 236,256.80078 c -0.16797,-0.16797 -0.28125,-0.35156 -0.35156,-0.55078 -0.42969,-0.30078 -0.83203,-0.60156 -1.19922,-0.89844 l -22,-22.10156 c -0.30078,-0.30078 -0.58203,-0.63281 -0.84766,-1 -0.23437,-0.13281 -0.45312,-0.30078 -0.65234,-0.5 l -10.5,-10.5 c -1.80078,-1.73438 -1.83203,-3.46875 -0.0977,-5.19922 l 16.5,-16.5 c 1.73047,-1.73437 3.5,-1.73437 5.29688,0 l 10.5,10.5 c 0.20312,0.19922 0.38281,0.39844 0.55078,0.59766 0.33203,0.30078 0.65234,0.60156 0.94922,0.90234 L 255,232.5 l 52.35156,-52.35156 -19.75,-19.79688 -46.75,46.75 c -1.73437,1.73047 -3.46875,1.73047 -5.20312,0 L 225.10156,196.55078 C 223.30078,194.81641 223.26562,193.08203 225,191.35156 L 290.94922,125.5 c 1.73437,-1.80078 3.5,-1.83203 5.30078,-0.10156 l 10.55078,10.55078 c 0.13281,0.10156 0.25,0.21875 0.34766,0.35156 l 0.75,0.75 22.85156,22.80078 c 0.23437,0.26563 0.48437,0.51563 0.75,0.75 0.0312,0.13281 0.14844,0.26563 0.35156,0.39844 M 392.5,202.89844 c 1.60156,-1.59766 1.60156,-3.21485 0,-4.84766 L 277.35156,82.949219 C 275.91797,81.515625 274.46875,81.382813 273,82.550781 c -0.13281,0.132813 -0.30078,0.265625 -0.5,0.398438 L 157.39844,197.94922 c -1.59766,1.69922 -1.59766,3.35156 0,4.94922 L 273,318.5 c 1.46875,1.10156 2.91797,0.89844 4.35156,-0.60156 l 115.14844,-115"
       id="path3339"
       inkscape:connector-curvature="0" />
  </g>
</svg>
